<?xml version="1.0" encoding="utf-8"?>
<!-- Generator: Adobe Illustrator 19.2.1, SVG Export Plug-In . SVG Version: 6.00 Build 0)  -->
<svg version="1.1" id="Layer_1" xmlns="http://www.w3.org/2000/svg" xmlns:xlink="http://www.w3.org/1999/xlink" x="0px" y="0px"
	 viewBox="0 0 1340.1 193.3" style="enable-background:new 0 0 1340.1 193.3;" xml:space="preserve">
<style type="text/css">
	.st0{fill:#33C18B;}
</style>
<path class="st0" d="M11.9,28.8H62c4.3,0,9.1,0.2,14.4,0.5c5.2,0.3,10.5,0.9,15.7,1.9c5.3,0.9,10.3,2.3,15.3,4
	c4.9,1.7,9.3,4,13.1,6.7c3.8,2.8,6.9,6.2,9.1,10.2c2.3,4,3.4,8.8,3.4,14.4c0,3.3-0.4,6.6-1.2,9.8c-0.8,3.3-2.2,6.3-4.2,9
	c-2,2.7-4.7,5.1-8.2,7.2c-3.5,2-7.9,3.5-13.3,4.3c5.9,0.4,11.1,1.7,15.7,4c4.6,2.4,8.5,5.3,11.6,8.8c3.2,3.5,5.6,7.4,7.2,11.6
	c1.6,4.2,2.5,8.4,2.5,12.6c0,5.5-1.1,10.9-3.4,16.1c-2.2,5.2-6,9.9-11.3,14c-5.3,4.1-12.3,7.4-21,9.9c-8.7,2.5-19.5,3.7-32.4,3.7
	H11.9V28.8z M73.7,90c3.3,0,6.3-0.5,9-1.4c2.7-0.9,5.1-2.2,7-3.7s3.5-3.3,4.6-5.4c1.1-2,1.6-4.1,1.6-6.3c0-3.4-0.7-6.1-2-8.3
	c-1.3-2.2-3.5-3.9-6.4-5.2c-2.9-1.3-6.8-2.1-11.5-2.6c-4.7-0.5-10.4-0.7-17.1-0.7V90H73.7z M59,150.6h19c6,0,10.5-1.6,13.5-4.7
	c3-3.1,4.5-7.2,4.5-12.1c0-2.9-0.5-5.5-1.5-7.6c-1-2.1-2.9-3.8-5.6-5.2c-2.7-1.4-6.5-2.4-11.3-3.1c-4.8-0.7-11-1-18.6-1V150.6z"/>
<path class="st0" d="M168.6,15.9H214v161.6h-45.4V15.9z"/>
<path class="st0" d="M302.1,180.5c-8.3,0-15.6-0.8-22.1-2.3c-6.5-1.5-12.1-3.7-16.9-6.4s-9-6-12.4-9.7c-3.4-3.7-6.2-7.8-8.3-12.3
	c-2.1-4.4-3.6-9.1-4.6-14c-0.9-4.9-1.4-9.9-1.4-14.9c0-5,0.5-9.9,1.4-14.8c0.9-4.9,2.5-9.5,4.6-14c2.1-4.5,4.8-8.6,8.2-12.3
	c3.4-3.7,7.5-7,12.4-9.8c4.9-2.8,10.5-4.9,17-6.5s13.8-2.4,22.1-2.4s15.6,0.8,22.1,2.4c6.5,1.6,12.1,3.8,17,6.5
	c4.9,2.8,9,6,12.4,9.8c3.4,3.8,6.1,7.9,8.2,12.3c2.1,4.5,3.6,9.1,4.6,14c0.9,4.9,1.4,9.8,1.4,14.8c0,5-0.5,10-1.4,14.9
	c-0.9,4.9-2.5,9.6-4.6,14c-2.1,4.4-4.9,8.5-8.3,12.3c-3.4,3.8-7.5,7-12.4,9.7c-4.8,2.7-10.5,4.9-16.9,6.4
	C317.7,179.8,310.3,180.5,302.1,180.5z M281.9,120.9c0,3.8,0.4,7.5,1.1,11.1c0.7,3.6,1.8,6.8,3.4,9.7c1.6,2.8,3.6,5.1,6.2,6.8
	c2.6,1.7,5.7,2.6,9.5,2.6s7-0.9,9.5-2.6c2.6-1.7,4.6-4,6.2-6.8c1.6-2.8,2.7-6.1,3.4-9.7c0.7-3.6,1.1-7.3,1.1-11.1
	c0-3.8-0.4-7.5-1.1-11.1c-0.7-3.6-1.8-6.8-3.4-9.7c-1.6-2.8-3.6-5.1-6.2-6.9s-5.7-2.6-9.5-2.6s-7,0.9-9.5,2.6
	c-2.6,1.8-4.6,4-6.2,6.9c-1.6,2.8-2.7,6.1-3.4,9.7C282.2,113.4,281.9,117.1,281.9,120.9z"/>
<path class="st0" d="M427.6,120.9c0,5.1,0.6,9.6,1.8,13.4c1.2,3.8,3,6.9,5.2,9.4c2.2,2.5,4.9,4.3,8.1,5.6c3.2,1.2,6.7,1.8,10.6,1.8
	c5,0,9.8-0.7,14.3-2.1s9.1-3.2,13.8-5.6l6.7,27.3c-3.1,1.6-6.4,3-10,4.3c-3.6,1.2-7.3,2.2-11,3.1c-3.8,0.8-7.6,1.4-11.5,1.8
	c-3.9,0.4-7.7,0.6-11.4,0.6c-8.5,0-16.5-1.2-24-3.6c-7.5-2.4-14.1-6-19.7-10.9c-5.6-4.9-10.1-11.1-13.4-18.6
	c-3.3-7.5-4.9-16.4-4.9-26.6s1.6-19.1,4.9-26.6c3.3-7.5,7.8-13.7,13.4-18.6s12.2-8.6,19.7-10.9c7.5-2.4,15.5-3.6,24-3.6
	c3.7,0,7.5,0.2,11.4,0.6c3.9,0.4,7.7,1,11.5,1.8c3.8,0.8,7.5,1.8,11,3.1c3.6,1.2,6.9,2.6,10,4.3l-6.7,27.3
	c-4.7-2.4-9.3-4.3-13.8-5.6s-9.3-2-14.3-2c-3.9,0-7.5,0.6-10.6,1.8c-3.2,1.2-5.9,3.1-8.1,5.6c-2.2,2.5-4,5.7-5.2,9.5
	C428.2,111.3,427.6,115.8,427.6,120.9z"/>
<path class="st0" d="M602.4,66.4H649l-43.2,51l45.3,60.1h-52.6l-34.2-53.5l-3.6,3.7v49.9h-45.4V15.9h45.4v98.7L602.4,66.4z"/>
<path class="st0" d="M941.1,177.5h-45.3l0.9-7.3c0.3-2.2,0.5-4.8,0.7-7.6c0.2-2.8,0.4-5.7,0.5-8.7c-2.1,4.1-4.8,7.8-7.9,11.1
	c-3.2,3.3-6.7,6-10.6,8.4s-8,4.1-12.3,5.3c-4.3,1.2-8.7,1.8-13.1,1.8c-5.5,0-10.7-0.9-15.6-2.7c-4.9-1.8-9.2-4.6-13-8.5
	c-3.8-3.9-6.7-8.9-8.9-15c-2.2-6.1-3.3-13.5-3.3-22.2V66.4h45.4v61.5c0,4.3,0.4,8,1.2,10.9c0.8,2.9,1.9,5.3,3.3,7.2s3,3.1,4.8,3.9
	c1.8,0.8,3.8,1.2,5.8,1.2c2.4,0,4.8-0.5,7.2-1.5c2.4-1,4.6-2.3,6.6-4c2-1.7,3.7-3.7,5.2-5.9c1.4-2.3,2.4-4.7,2.9-7.3v-66h45.4V177.5
	z"/>
<path class="st0" d="M1140.1,180.5c-3.8,0-7.5-0.5-11.3-1.5c-3.7-1-7.2-2.4-10.6-4.3c-3.3-1.9-6.4-4.1-9.1-6.8
	c-2.7-2.7-5-5.8-6.9-9.2v18.7h-45.4V15.9h45.4v63.6c1.6-2.7,3.8-5.1,6.6-7.4c2.8-2.2,6-4.2,9.5-5.8c3.5-1.6,7.3-2.9,11.3-3.8
	c4-0.9,8-1.4,12-1.4c6.3,0,12.4,1.1,18.4,3.2c6,2.1,11.3,5.5,15.9,10.3c4.6,4.7,8.4,10.9,11.2,18.5c2.8,7.6,4.3,16.9,4.3,27.8
	c0,10.4-1.4,19.3-4.2,26.8c-2.8,7.5-6.5,13.7-11.1,18.6c-4.7,4.9-10.1,8.5-16.3,10.8C1153.5,179.4,1146.9,180.5,1140.1,180.5z
	 M1145.8,121c0-5.7-0.6-10.6-1.9-14.5c-1.3-3.9-2.9-7-5-9.4c-2.1-2.4-4.5-4.1-7.1-5.1c-2.6-1-5.3-1.5-8-1.5s-5.4,0.5-7.9,1.5
	c-2.6,1-4.9,2.7-6.9,5.1s-3.7,5.5-4.9,9.4c-1.2,3.9-1.8,8.7-1.8,14.4c0,5.7,0.6,10.6,1.8,14.5c1.2,3.9,2.9,7,4.9,9.4
	c2,2.4,4.3,4,6.9,5c2.6,1,5.3,1.5,8,1.5c2.7,0,5.4-0.5,8-1.5c2.6-1,5-2.7,7-5c2.1-2.3,3.7-5.5,5-9.3
	C1145.2,131.6,1145.8,126.8,1145.8,121z"/>
<path class="st0" d="M1321.7,173c-6.6,2.2-13.7,4-21.4,5.4c-7.6,1.4-15.6,2.2-23.9,2.2c-9,0-17.7-1.2-25.9-3.6
	c-8.2-2.4-15.4-6.1-21.7-11.1c-6.2-5-11.2-11.4-14.9-19.2c-3.7-7.7-5.5-17-5.5-27.7c0-6.1,0.9-11.8,2.8-17c1.9-5.2,4.5-10,7.7-14.3
	c3.3-4.3,7.1-8.1,11.5-11.4c4.4-3.3,9.1-6.1,14.1-8.3c5-2.2,10.2-3.9,15.5-5.1s10.6-1.7,15.7-1.7c8.1,0,15.2,0.9,21.4,2.7
	s11.3,4.2,15.4,7.2c4.1,3,7.2,6.5,9.3,10.5c2.1,4,3.2,8.2,3.2,12.7c0,5.5-0.9,10.1-2.8,14c-1.9,3.9-4.3,7.1-7.5,9.7
	c-3.1,2.6-6.7,4.7-10.8,6.2c-4.1,1.5-8.4,2.7-13,3.5c-4.6,0.8-9.2,1.3-13.9,1.5c-4.7,0.2-9.2,0.3-13.5,0.3c-1.5,0-2.9,0-4.3-0.1
	c-1.4,0-2.7-0.1-4-0.1c0.6,4,1.7,7.4,3.3,10.1c1.6,2.7,3.7,5,6.2,6.7c2.5,1.7,5.4,2.9,8.6,3.7c3.3,0.7,6.8,1.1,10.5,1.1
	c2.8,0,5.8-0.2,9-0.6c3.2-0.4,6.4-1,9.7-1.7c3.3-0.7,6.5-1.6,9.8-2.5c3.3-0.9,6.4-1.9,9.4-3V173z M1254.3,113.2
	c1.7-0.1,3.8-0.2,6.5-0.3c2.6-0.1,5.4-0.4,8.4-0.7c2.9-0.4,5.9-0.8,8.8-1.5c2.9-0.6,5.6-1.4,8-2.4c2.4-1,4.3-2.2,5.8-3.7
	c1.5-1.5,2.2-3.3,2.2-5.4c0-3.6-1.4-6.4-4.3-8.6c-2.8-2.1-6.8-3.2-11.8-3.2c-2.3,0-4.8,0.3-7.5,1c-2.7,0.7-5.2,1.9-7.5,3.8
	s-4.3,4.5-5.9,7.9C1255.4,103.5,1254.5,107.9,1254.3,113.2z"/>
<path class="st0" d="M702.9,179.1V50.3h-40.8V15.6h140.2v34.7h-41.5v128.8H702.9z"/>
<polygon class="st0" points="965.6,176.3 1032.8,176.3 999.2,126.2 "/>
</svg>
