<?xml version="1.0" encoding="utf-8"?>
<!-- Generator: Adobe Illustrator 19.2.1, SVG Export Plug-In . SVG Version: 6.00 Build 0)  -->
<svg version="1.1" id="Layer_1" xmlns="http://www.w3.org/2000/svg" xmlns:xlink="http://www.w3.org/1999/xlink" x="0px" y="0px"
	 viewBox="0 0 427 193.3" style="enable-background:new 0 0 427 193.3;" xml:space="preserve">
<style type="text/css">
	.st0{fill:#E5DA88;}
</style>
<path class="st0" d="M29.6,13.9h55c4.8,0,10,0.2,15.8,0.5c5.7,0.3,11.5,1,17.3,2.1c5.8,1,11.4,2.5,16.8,4.4
	c5.4,1.9,10.2,4.4,14.4,7.4s7.5,6.8,10.1,11.2c2.5,4.4,3.8,9.7,3.8,15.8c0,3.6-0.4,7.2-1.3,10.8c-0.8,3.6-2.4,6.9-4.6,9.9
	c-2.2,3-5.2,5.6-9,7.9c-3.8,2.2-8.7,3.8-14.6,4.7c6.5,0.4,12.2,1.9,17.3,4.4c5,2.6,9.3,5.8,12.8,9.6s6.1,8.1,7.9,12.8
	c1.8,4.7,2.7,9.3,2.7,13.8c0,6.1-1.2,12-3.7,17.7s-6.6,10.9-12.4,15.4s-13.5,8.1-23.1,10.9c-9.6,2.7-21.4,4.1-35.6,4.1H29.6V13.9z
	 M97.6,81.2c3.6,0,6.9-0.5,9.9-1.6c3-1,5.6-2.4,7.7-4.1c2.2-1.7,3.8-3.7,5-5.9c1.2-2.2,1.8-4.5,1.8-6.9c0-3.7-0.7-6.7-2.2-9.1
	c-1.5-2.4-3.8-4.3-7-5.7s-7.4-2.3-12.6-2.9c-5.2-0.5-11.4-0.8-18.8-0.8v37H97.6z M81.4,147.7h20.9c6.6,0,11.6-1.7,14.8-5.1
	c3.3-3.4,4.9-7.9,4.9-13.3c0-3.2-0.6-6-1.7-8.3s-3.2-4.2-6.2-5.7s-7.1-2.6-12.4-3.4c-5.3-0.7-12.1-1.1-20.4-1.1L81.4,147.7
	L81.4,147.7z"/>
<path class="st0" d="M304.3,177.3V51.6H260V13.9h152.4v37.7h-45.1v125.7H304.3z"/>
<polygon class="st0" points="191.2,179.4 258.4,179.4 224.8,129.3 "/>
</svg>
