<?xml version="1.0" encoding="utf-8"?>
<!-- Generator: Adobe Illustrator 19.2.1, SVG Export Plug-In . SVG Version: 6.00 Build 0)  -->
<svg version="1.1" id="Layer_1" xmlns="http://www.w3.org/2000/svg" xmlns:xlink="http://www.w3.org/1999/xlink" x="0px" y="0px"
	 viewBox="0 0 427 193.3" style="enable-background:new 0 0 427 193.3;" xml:space="preserve">
<style type="text/css">
	.st0{fill:#E5DA88;}
</style>
<path class="st0" d="M29.6,13.9h55c4.8,0,10,0.2,15.8,0.5c5.7,0.3,11.5,1,17.3,2.1c5.8,1,11.4,2.5,16.8,4.4
	c5.4,1.9,10.2,4.4,14.4,7.4s7.5,6.8,10.1,11.2c2.5,4.4,3.8,9.7,3.8,15.8c0,3.6-0.4,7.2-1.3,10.8c-0.8,3.6-2.4,6.9-4.6,9.9
	c-2.2,3-5.2,5.6-9,7.9c-3.8,2.2-8.7,3.8-14.6,4.7c6.5,0.4,12.2,1.9,17.3,4.4c5,2.6,9.3,5.8,12.8,9.6s6.1,8.1,7.9,12.8
	c1.8,4.7,2.7,9.3,2.7,13.8c0,6.1-1.2,12-3.7,17.7s-6.6,10.9-12.4,15.4s-13.5,8.1-23.1,10.9c-9.6,2.7-21.4,4.1-35.6,4.1H29.6V13.9z
	 M97.6,81.2c3.6,0,6.9-0.5,9.9-1.6c3-1,5.6-2.4,7.7-4.1c2.2-1.7,3.8-3.7,5-5.9c1.2-2.2,1.8-4.5,1.8-6.9c0-3.7-0.7-6.7-2.2-9.1
	c-1.5-2.4-3.8-4.3-7-5.7s-7.4-2.3-12.6-2.9c-5.2-0.5-11.4-0.8-18.8-0.8v37H97.6z M81.4,147.7h20.9c6.6,0,11.6-1.7,14.8-5.1
	c3.3-3.4,4.9-7.9,4.9-13.3c0-3.2-0.6-6-1.7-8.3s-3.2-4.2-6.2-5.7s-7.1-2.6-12.4-3.4c-5.3-0.7-12.1-1.1-20.4-1.1L81.4,147.7
	L81.4,147.7z"/>
<path class="st0" d="M304.3,177.3V51.6H260V13.9h152.4v37.7h-45.1v125.7H304.3z"/>
<polygon class="st0" points="191.2,179.4 258.4,179.4 224.8,129.3 "/>
<rect x="100.8" y="510.1" style="fill:none;" width="582.2" height="111"/>
<text transform="matrix(1 0 0 1 100.8469 577.6402)" style="font-family:'Candal'; font-size:90px;">BlockTube</text>
<path d="M-97.7,274.5h20.9c1.8,0,3.8,0.1,6,0.2s4.4,0.4,6.6,0.8s4.3,1,6.4,1.7c2.1,0.7,3.9,1.7,5.5,2.8c1.6,1.2,2.9,2.6,3.8,4.3
	c1,1.7,1.4,3.7,1.4,6c0,1.4-0.2,2.7-0.5,4.1s-0.9,2.6-1.7,3.8c-0.8,1.1-2,2.1-3.4,3c-1.4,0.8-3.3,1.5-5.6,1.8
	c2.5,0.1,4.7,0.7,6.6,1.7c1.9,1,3.5,2.2,4.9,3.7s2.3,3.1,3,4.9c0.7,1.8,1,3.5,1,5.3c0,2.3-0.5,4.6-1.4,6.7c-0.9,2.2-2.5,4.1-4.7,5.8
	s-5.1,3.1-8.8,4.1c-3.6,1-8.1,1.6-13.5,1.6h-26.4V274.5z M-71.8,300.1c1.4,0,2.6-0.2,3.8-0.6s2.1-0.9,2.9-1.6s1.5-1.4,1.9-2.2
	s0.7-1.7,0.7-2.6c0-1.4-0.3-2.6-0.8-3.5s-1.5-1.6-2.7-2.2s-2.8-0.9-4.8-1.1s-4.4-0.3-7.2-0.3v14.1H-71.8z M-78,325.4h8
	c2.5,0,4.4-0.7,5.6-2c1.2-1.3,1.9-3,1.9-5.1c0-1.2-0.2-2.3-0.6-3.2c-0.4-0.9-1.2-1.6-2.4-2.2s-2.7-1-4.7-1.3c-2-0.3-4.6-0.4-7.8-0.4
	V325.4z"/>
<path d="M-32.2,269.1h19v67.5h-19V269.1z"/>
<path d="M23.6,337.9c-3.5,0-6.5-0.3-9.2-1c-2.7-0.6-5.1-1.5-7.1-2.7s-3.7-2.5-5.2-4.1c-1.4-1.6-2.6-3.3-3.5-5.1s-1.5-3.8-1.9-5.8
	c-0.4-2.1-0.6-4.1-0.6-6.2c0-2.1,0.2-4.1,0.6-6.2c0.4-2,1-4,1.9-5.8c0.9-1.9,2-3.6,3.4-5.1c1.4-1.6,3.1-2.9,5.2-4.1
	c2-1.2,4.4-2.1,7.1-2.7s5.8-1,9.2-1s6.5,0.3,9.2,1s5.1,1.6,7.1,2.7c2,1.2,3.8,2.5,5.2,4.1c1.4,1.6,2.5,3.3,3.4,5.1
	c0.9,1.9,1.5,3.8,1.9,5.8c0.4,2,0.6,4.1,0.6,6.2c0,2.1-0.2,4.2-0.6,6.2c-0.4,2.1-1,4-1.9,5.8s-2,3.6-3.5,5.1
	c-1.4,1.6-3.1,2.9-5.2,4.1s-4.4,2-7.1,2.7C30.1,337.6,27,337.9,23.6,337.9z M15.1,313c0,1.6,0.1,3.1,0.4,4.6c0.3,1.5,0.8,2.9,1.4,4
	c0.7,1.2,1.5,2.1,2.6,2.9c1.1,0.7,2.4,1.1,4,1.1s2.9-0.4,4-1.1c1.1-0.7,1.9-1.7,2.6-2.9c0.7-1.2,1.1-2.5,1.4-4
	c0.3-1.5,0.4-3.1,0.4-4.6s-0.1-3.1-0.4-4.6c-0.3-1.5-0.8-2.9-1.4-4c-0.7-1.2-1.5-2.1-2.6-2.9s-2.4-1.1-4-1.1s-2.9,0.4-4,1.1
	c-1.1,0.7-1.9,1.7-2.6,2.9c-0.7,1.2-1.1,2.5-1.4,4C15.3,309.9,15.1,311.4,15.1,313z"/>
<path d="M76,313c0,2.1,0.3,4,0.8,5.6c0.5,1.6,1.2,2.9,2.2,3.9c0.9,1,2.1,1.8,3.4,2.3c1.3,0.5,2.8,0.8,4.4,0.8c2.1,0,4.1-0.3,6-0.9
	s3.8-1.4,5.8-2.4l2.8,11.4c-1.3,0.7-2.7,1.3-4.2,1.8c-1.5,0.5-3,0.9-4.6,1.3c-1.6,0.3-3.2,0.6-4.8,0.8c-1.6,0.2-3.2,0.3-4.8,0.3
	c-3.5,0-6.9-0.5-10-1.5c-3.1-1-5.9-2.5-8.2-4.6s-4.2-4.6-5.6-7.8S57,317.2,57,313s0.7-8,2.1-11.1s3.2-5.7,5.6-7.8s5.1-3.6,8.2-4.6
	s6.5-1.5,10-1.5c1.6,0,3.1,0.1,4.8,0.3c1.6,0.2,3.2,0.4,4.8,0.8c1.6,0.3,3.1,0.8,4.6,1.3c1.5,0.5,2.9,1.1,4.2,1.8l-2.8,11.4
	c-2-1-3.9-1.8-5.8-2.4s-3.9-0.9-6-0.9c-1.6,0-3.1,0.3-4.4,0.8c-1.3,0.5-2.4,1.3-3.4,2.4s-1.7,2.4-2.2,4C76.2,309,76,310.9,76,313z"
	/>
<path d="M149,290.2h19.5l-18.1,21.3l18.9,25.1h-22l-14.3-22.4l-1.5,1.5v20.8h-19v-67.5h19v41.2L149,290.2z"/>
<path d="M188,336.6v-50.8H174v-14.3h48.1v14.3h-14.4v50.8H188z"/>
<path d="M277.5,336.6h-18.9l0.4-3c0.1-0.9,0.2-2,0.3-3.2s0.2-2.4,0.2-3.6c-0.9,1.7-2,3.3-3.3,4.6c-1.3,1.4-2.8,2.5-4.4,3.5
	s-3.3,1.7-5.1,2.2c-1.8,0.5-3.6,0.8-5.5,0.8c-2.3,0-4.5-0.4-6.5-1.1s-3.9-1.9-5.4-3.6c-1.6-1.6-2.8-3.7-3.7-6.3
	c-0.9-2.6-1.4-5.7-1.4-9.3v-27.4h19v25.7c0,1.8,0.2,3.3,0.5,4.6s0.8,2.2,1.4,3s1.3,1.3,2,1.6c0.8,0.3,1.6,0.5,2.4,0.5
	c1,0,2-0.2,3-0.6c1-0.4,1.9-1,2.8-1.7c0.8-0.7,1.6-1.5,2.2-2.5c0.6-1,1-2,1.2-3.1v-27.6h19V336.6z"/>
<path d="M338,337.9c-1.6,0-3.1-0.2-4.7-0.6c-1.6-0.4-3-1-4.4-1.8c-1.4-0.8-2.7-1.7-3.8-2.9c-1.1-1.1-2.1-2.4-2.9-3.8v7.8h-19v-67.5
	h19v26.6c0.7-1.1,1.6-2.1,2.8-3.1s2.5-1.8,4-2.4c1.5-0.7,3-1.2,4.7-1.6s3.3-0.6,5-0.6c2.6,0,5.2,0.4,7.7,1.3s4.7,2.3,6.6,4.3
	s3.5,4.6,4.7,7.7c1.2,3.2,1.8,7.1,1.8,11.6c0,4.3-0.6,8.1-1.7,11.2c-1.2,3.1-2.7,5.7-4.7,7.8c-1.9,2-4.2,3.5-6.8,4.5
	C343.6,337.4,340.9,337.9,338,337.9z M340.4,313c0-2.4-0.3-4.4-0.8-6s-1.2-2.9-2.1-3.9s-1.9-1.7-3-2.1c-1.1-0.4-2.2-0.6-3.4-0.6
	s-2.2,0.2-3.3,0.6c-1.1,0.4-2,1.1-2.9,2.1s-1.5,2.3-2,3.9c-0.5,1.6-0.8,3.6-0.8,6c0,2.4,0.3,4.4,0.8,6c0.5,1.6,1.2,2.9,2,3.9
	c0.8,1,1.8,1.7,2.9,2.1c1.1,0.4,2.2,0.6,3.3,0.6s2.3-0.2,3.4-0.6c1.1-0.4,2.1-1.1,2.9-2.1c0.9-1,1.6-2.3,2.1-3.9
	S340.4,315.4,340.4,313z"/>
<path d="M413.9,334.8c-2.8,0.9-5.7,1.7-8.9,2.3c-3.2,0.6-6.5,0.9-10,0.9c-3.8,0-7.4-0.5-10.8-1.5c-3.4-1-6.4-2.5-9.1-4.7
	s-4.7-4.8-6.2-8c-1.5-3.2-2.3-7.1-2.3-11.6c0-2.5,0.4-4.9,1.2-7.1c0.8-2.2,1.9-4.2,3.2-6c1.4-1.8,3-3.4,4.8-4.7
	c1.8-1.4,3.8-2.5,5.9-3.5c2.1-0.9,4.3-1.6,6.5-2.1s4.4-0.7,6.5-0.7c3.4,0,6.3,0.4,8.9,1.1s4.7,1.8,6.4,3c1.7,1.3,3,2.7,3.9,4.4
	s1.3,3.4,1.3,5.3c0,2.3-0.4,4.2-1.2,5.8c-0.8,1.6-1.8,3-3.1,4.1s-2.8,2-4.5,2.6c-1.7,0.6-3.5,1.1-5.4,1.5c-1.9,0.3-3.8,0.5-5.8,0.6
	c-2,0.1-3.9,0.1-5.6,0.1c-0.6,0-1.2,0-1.8,0c-0.6,0-1.1,0-1.7,0c0.2,1.7,0.7,3.1,1.4,4.2c0.7,1.1,1.6,2.1,2.6,2.8
	c1,0.7,2.2,1.2,3.6,1.5c1.4,0.3,2.8,0.5,4.4,0.5c1.2,0,2.4-0.1,3.8-0.3c1.3-0.2,2.7-0.4,4-0.7c1.4-0.3,2.7-0.7,4.1-1.1
	c1.4-0.4,2.7-0.8,3.9-1.3V334.8z M385.7,309.8c0.7,0,1.6-0.1,2.7-0.1c1.1-0.1,2.3-0.2,3.5-0.3s2.5-0.4,3.7-0.6s2.3-0.6,3.3-1
	s1.8-0.9,2.4-1.5s0.9-1.4,0.9-2.2c0-1.5-0.6-2.7-1.8-3.6c-1.2-0.9-2.8-1.3-4.9-1.3c-1,0-2,0.1-3.1,0.4c-1.1,0.3-2.2,0.8-3.1,1.6
	s-1.8,1.9-2.5,3.3S385.8,307.6,385.7,309.8z"/>
<rect x="100.8" y="738.2" style="fill:none;" width="582.2" height="111"/>
<text transform="matrix(1 0 0 1 100.8469 802.6019)" style="font-family:'Arial-Black'; font-size:90px;">BlockTube</text>
</svg>
