<?xml version="1.0" encoding="utf-8"?>
<!-- Generator: Adobe Illustrator 19.2.1, SVG Export Plug-In . SVG Version: 6.00 Build 0)  -->
<svg version="1.1" id="Layer_1" xmlns="http://www.w3.org/2000/svg" xmlns:xlink="http://www.w3.org/1999/xlink" x="0px" y="0px"
	 viewBox="0 0 300 300" style="enable-background:new 0 0 300 300;" xml:space="preserve">
<style type="text/css">
	.st0{fill:#FFFFFF;}
	.st1{fill:#EFEFEF;}
	.st2{fill:#39AA7C;}
	.st3{fill:none;}
	.st4{enable-background:new    ;}
	.st5{opacity:0.6;fill:#39AA7C;}
</style>
<rect x="-3419.3" y="-2096.6" class="st0" width="2849.4" height="3815.2"/>
<rect x="-3419.3" y="-2096.6" class="st1" width="2849.4" height="386.3"/>
<g>
	<path class="st2" d="M-1481.8-1864.5h24.9c2.2,0,4.5,0.1,7.1,0.2c2.6,0.2,5.2,0.5,7.8,0.9c2.6,0.5,5.1,1.1,7.6,2
		c2.4,0.9,4.6,2,6.5,3.3c1.9,1.4,3.4,3.1,4.5,5.1s1.7,4.4,1.7,7.1c0,1.6-0.2,3.3-0.6,4.9s-1.1,3.1-2.1,4.5s-2.4,2.5-4.1,3.6
		c-1.7,1-3.9,1.7-6.6,2.1c2.9,0.2,5.5,0.8,7.8,2s4.2,2.6,5.8,4.4s2.8,3.7,3.6,5.8c0.8,2.1,1.2,4.2,1.2,6.2c0,2.8-0.6,5.4-1.7,8
		s-3,4.9-5.6,7s-6.1,3.7-10.4,4.9c-4.3,1.2-9.7,1.9-16.1,1.9h-31.4L-1481.8-1864.5L-1481.8-1864.5z M-1451.1-1834.1
		c1.6,0,3.1-0.2,4.5-0.7s2.5-1.1,3.5-1.9s1.7-1.7,2.3-2.7c0.5-1,0.8-2.1,0.8-3.1c0-1.7-0.3-3-1-4.1s-1.7-1.9-3.2-2.6
		c-1.5-0.6-3.4-1.1-5.7-1.3s-5.2-0.4-8.5-0.4v16.7L-1451.1-1834.1L-1451.1-1834.1z M-1458.4-1804h9.5c3,0,5.2-0.8,6.7-2.3
		s2.2-3.6,2.2-6c0-1.5-0.3-2.7-0.8-3.8c-0.5-1-1.4-1.9-2.8-2.6s-3.2-1.2-5.6-1.5s-5.5-0.5-9.2-0.5L-1458.4-1804L-1458.4-1804z"/>
	<path class="st2" d="M-1404-1870.8h22.6v80.3h-22.6V-1870.8z"/>
	<path class="st2" d="M-1337.7-1789.1c-4.1,0-7.8-0.4-11-1.1c-3.2-0.8-6-1.8-8.4-3.2c-2.4-1.4-4.5-3-6.1-4.8
		c-1.7-1.9-3.1-3.9-4.1-6.1s-1.8-4.5-2.3-7c-0.5-2.4-0.7-4.9-0.7-7.4s0.2-4.9,0.7-7.3s1.2-4.7,2.3-7c1-2.2,2.4-4.3,4.1-6.1
		c1.7-1.9,3.7-3.5,6.1-4.9s5.2-2.5,8.4-3.2c3.2-0.8,6.9-1.2,11-1.2s7.8,0.4,11,1.2s6,1.9,8.4,3.2c2.4,1.4,4.5,3,6.1,4.9
		c1.7,1.9,3,3.9,4.1,6.1c1,2.2,1.8,4.5,2.3,7c0.5,2.4,0.7,4.9,0.7,7.3c0,2.5-0.2,5-0.7,7.4s-1.2,4.8-2.3,7c-1,2.2-2.4,4.2-4.1,6.1
		s-3.7,3.5-6.1,4.8c-2.4,1.4-5.2,2.4-8.4,3.2C-1329.9-1789.3-1333.6-1789.1-1337.7-1789.1z M-1347.7-1818.7c0,1.9,0.2,3.7,0.5,5.5
		s0.9,3.4,1.7,4.8c0.8,1.4,1.8,2.5,3.1,3.4c1.3,0.9,2.8,1.3,4.7,1.3c1.9,0,3.5-0.4,4.7-1.3c1.3-0.9,2.3-2,3.1-3.4
		c0.8-1.4,1.3-3,1.7-4.8c0.3-1.8,0.5-3.6,0.5-5.5s-0.2-3.7-0.5-5.5s-0.9-3.4-1.7-4.8c-0.8-1.4-1.8-2.6-3.1-3.4s-2.8-1.3-4.7-1.3
		c-1.9,0-3.5,0.4-4.7,1.3c-1.3,0.9-2.3,2-3.1,3.4c-0.8,1.4-1.3,3-1.7,4.8C-1347.5-1822.3-1347.7-1820.6-1347.7-1818.7z"/>
	<path class="st2" d="M-1275.3-1818.7c0,2.5,0.3,4.8,0.9,6.6c0.6,1.9,1.5,3.4,2.6,4.7c1.1,1.2,2.5,2.2,4,2.8
		c1.6,0.6,3.3,0.9,5.3,0.9c2.5,0,4.9-0.3,7.1-1s4.5-1.6,6.8-2.8l3.3,13.6c-1.5,0.8-3.2,1.5-5,2.1s-3.6,1.1-5.5,1.5s-3.8,0.7-5.7,0.9
		c-1.9,0.2-3.8,0.3-5.7,0.3c-4.2,0-8.2-0.6-11.9-1.8c-3.7-1.2-7-3-9.8-5.4s-5-5.5-6.7-9.3s-2.5-8.1-2.5-13.2s0.8-9.5,2.5-13.2
		s3.9-6.8,6.7-9.3c2.8-2.4,6.1-4.3,9.8-5.4s7.7-1.8,11.9-1.8c1.8,0,3.7,0.1,5.7,0.3c1.9,0.2,3.8,0.5,5.7,0.9
		c1.9,0.4,3.7,0.9,5.5,1.5s3.4,1.3,5,2.1l-3.3,13.6c-2.3-1.2-4.6-2.1-6.8-2.8c-2.2-0.7-4.6-1-7.1-1c-2,0-3.7,0.3-5.3,0.9
		c-1.6,0.6-2.9,1.5-4,2.8s-2,2.8-2.6,4.7C-1275-1823.5-1275.3-1821.2-1275.3-1818.7z"/>
	<path class="st2" d="M-1188.4-1845.8h23.2l-21.5,25.4l22.5,29.8h-26.1l-17-26.6l-1.8,1.8v24.8h-22.6v-80.3h22.6v49L-1188.4-1845.8z
		"/>
	<path class="st2" d="M-1022.1-1790.6h-22.5l0.5-3.6c0.1-1.1,0.3-2.4,0.4-3.8c0.1-1.4,0.2-2.8,0.3-4.3c-1,2.1-2.4,3.9-3.9,5.5
		c-1.6,1.6-3.3,3-5.3,4.2c-1.9,1.1-4,2-6.1,2.6c-2.2,0.6-4.3,0.9-6.5,0.9c-2.7,0-5.3-0.4-7.7-1.3c-2.4-0.9-4.6-2.3-6.5-4.2
		c-1.9-1.9-3.3-4.4-4.4-7.5c-1.1-3-1.6-6.7-1.6-11.1v-32.6h22.6v30.5c0,2.2,0.2,4,0.6,5.4c0.4,1.5,1,2.6,1.6,3.6
		c0.7,0.9,1.5,1.6,2.4,2s1.9,0.6,2.9,0.6c1.2,0,2.4-0.2,3.6-0.7s2.3-1.1,3.3-2c1-0.8,1.8-1.8,2.6-3c0.7-1.1,1.2-2.3,1.4-3.6v-32.8
		h22.6v55.2H-1022.1z"/>
	<path class="st2" d="M-922.4-1789.1c-1.9,0-3.7-0.2-5.6-0.7c-1.8-0.5-3.6-1.2-5.3-2.1s-3.2-2.1-4.5-3.4c-1.4-1.3-2.5-2.9-3.4-4.6
		v9.3h-22.6v-80.3h22.6v31.6c0.8-1.3,1.9-2.5,3.3-3.7c1.4-1.1,3-2.1,4.7-2.9s3.6-1.5,5.6-1.9c2-0.5,4-0.7,6-0.7
		c3.1,0,6.2,0.5,9.1,1.6c3,1,5.6,2.7,7.9,5.1c2.3,2.4,4.2,5.4,5.6,9.2c1.4,3.8,2.1,8.4,2.1,13.8c0,5.2-0.7,9.6-2.1,13.3
		c-1.4,3.7-3.2,6.8-5.5,9.2c-2.3,2.4-5,4.2-8.1,5.4C-915.7-1789.6-918.9-1789.1-922.4-1789.1z M-919.5-1818.6c0-2.9-0.3-5.3-0.9-7.2
		s-1.5-3.5-2.5-4.7s-2.2-2-3.5-2.5s-2.6-0.8-4-0.8s-2.7,0.3-3.9,0.8c-1.3,0.5-2.4,1.4-3.4,2.5s-1.8,2.7-2.4,4.7
		c-0.6,1.9-0.9,4.3-0.9,7.1c0,2.9,0.3,5.3,0.9,7.2c0.6,1.9,1.4,3.5,2.4,4.7s2.2,2,3.4,2.5c1.3,0.5,2.6,0.8,4,0.8s2.7-0.3,4-0.8
		s2.5-1.3,3.5-2.5s1.9-2.7,2.5-4.6S-919.5-1815.8-919.5-1818.6z"/>
	<path class="st2" d="M-833.1-1792.8c-3.3,1.1-6.8,2-10.6,2.7s-7.8,1.1-11.9,1.1c-4.5,0-8.8-0.6-12.9-1.8c-4.1-1.2-7.7-3-10.8-5.5
		s-5.6-5.7-7.4-9.5c-1.8-3.8-2.7-8.4-2.7-13.8c0-3,0.5-5.8,1.4-8.4s2.2-5,3.8-7.1s3.5-4,5.7-5.6s4.5-3,7-4.1s5.1-2,7.7-2.5
		c2.6-0.6,5.2-0.9,7.8-0.9c4,0,7.5,0.4,10.6,1.3s5.6,2.1,7.7,3.6c2,1.5,3.6,3.2,4.6,5.2s1.6,4.1,1.6,6.3c0,2.7-0.5,5-1.4,7
		c-0.9,1.9-2.2,3.5-3.7,4.8c-1.6,1.3-3.3,2.3-5.4,3.1c-2,0.8-4.2,1.3-6.5,1.7c-2.3,0.4-4.6,0.7-6.9,0.8c-2.4,0.1-4.6,0.2-6.7,0.2
		c-0.7,0-1.4,0-2.1,0c-0.7,0-1.3,0-2,0c0.3,2,0.8,3.7,1.6,5c0.8,1.4,1.8,2.5,3.1,3.3c1.2,0.9,2.7,1.5,4.3,1.8
		c1.6,0.4,3.4,0.5,5.2,0.5c1.4,0,2.9-0.1,4.5-0.3c1.6-0.2,3.2-0.5,4.8-0.9s3.2-0.8,4.9-1.3c1.6-0.5,3.2-1,4.7-1.5L-833.1-1792.8
		L-833.1-1792.8z M-866.6-1822.5c0.8,0,1.9-0.1,3.2-0.2s2.7-0.2,4.2-0.4s2.9-0.4,4.4-0.7c1.5-0.3,2.8-0.7,4-1.2s2.1-1.1,2.9-1.8
		c0.7-0.7,1.1-1.6,1.1-2.7c0-1.8-0.7-3.2-2.1-4.3c-1.4-1.1-3.4-1.6-5.9-1.6c-1.1,0-2.4,0.2-3.7,0.5s-2.6,1-3.7,1.9
		c-1.1,0.9-2.1,2.2-2.9,3.9C-866-1827.2-866.5-1825.2-866.6-1822.5z"/>
	<path class="st2" d="M-1139.5-1789.8v-64h-20.3v-17.2h69.7v17.2h-20.6v64H-1139.5z"/>
	<polygon class="st2" points="-1010,-1789.8 -975.8,-1789.8 -992.9,-1815.2 	"/>
</g>
<rect x="1456" y="-1134.5" class="st3" width="1519.4" height="147.7"/>
<text transform="matrix(1 0 0 1 1456.0193 -1000.896)" style="font-family:'Montserrat-ExtraBold'; font-size:180px;">BlockTube</text>
<rect x="-80" y="-160" class="st2" width="460" height="460"/>
<polygon class="st0" points="143.1,194.8 183.2,194.8 163.2,165 "/>
<path class="st0" d="M98.6,99.8c22.2,0,36.4,9.4,36.4,23.9c0,9.6-6.2,17.6-16.1,20.4c11.6,2.4,19.1,11.9,19.1,23.9
	c0,16.3-14.6,26.5-37.3,26.5H52.1V99.8H98.6z M80.1,137.1h17c5.5,0,9.1-3.2,9.1-8.3c0-4.9-3.5-7.9-9.1-7.9h-17V137.1z M80.1,173.7
	h17c7.1,0,11.6-3.5,11.6-9.1c0-5.1-4.5-8.4-11.6-8.4h-17V173.7z"/>
<path class="st0" d="M231.6,122.3v72.4h-28.3v-72.4h-27.5V99.8h83.3v22.5H231.6z"/>
<rect x="677.2" y="-124.7" class="st2" width="160" height="90"/>
<rect x="944.2" y="-90.2" class="st2" width="160" height="90"/>
<rect x="1253.2" y="-364.7" class="st5" width="320" height="180"/>
</svg>
